HIERARCHY
ROOT Hips
{
	OFFSET 0.000000 0.000000 0.000000
	CHANNELS 6 Xposition Yposition Zposition Zrotation Yrotation Xrotation 
	JOINT LowerBack
	{
		OFFSET 0.000000 0.000000 0.000000
		CHANNELS 3 Zrotation Yrotation Xrotation
		JOINT Spine
		{
			OFFSET 0.028270 2.035590 -0.193380
			CHANNELS 3 Zrotation Yrotation Xrotation
			JOINT Spine1
			{
				OFFSET 0.056720 2.048850 -0.042750
				CHANNELS 3 Zrotation Yrotation Xrotation
				JOINT Neck
				{
					OFFSET 0.000000 0.000000 0.000000
					CHANNELS 3 Zrotation Yrotation Xrotation
					JOINT Neck1
					{
						OFFSET -0.054170 1.746240 0.172020
						CHANNELS 3 Zrotation Yrotation Xrotation
						JOINT Head
						{
							OFFSET 0.104070 1.761360 -0.123970
							CHANNELS 3 Zrotation Yrotation Xrotation
							End Site
							{
								OFFSET 0.000000 0.000000 0.000000
							}
						}
					}
				}
				JOINT LeftShoulder
				{
					OFFSET 0.000000 0.000000 0.000000
					CHANNELS 3 Zrotation Yrotation Xrotation
					JOINT LeftArm
					{
						OFFSET 3.362410 1.200890 -0.311210
						CHANNELS 3 Zrotation Yrotation Xrotation
						JOINT LeftForeArm
						{
							OFFSET 4.983000 -0.000000 -0.000000
							CHANNELS 3 Zrotation Yrotation Xrotation
							JOINT LeftHand
							{
								OFFSET 3.483560 -0.000000 -0.000000
								CHANNELS 3 Zrotation Yrotation Xrotation
								JOINT LeftFingerBase
								{
									OFFSET 0.000000 0.000000 0.000000
									CHANNELS 3 Zrotation Yrotation Xrotation
									JOINT LeftHandIndex1
									{
										OFFSET 0.715260 -0.000000 -0.000000
										CHANNELS 3 Zrotation Yrotation Xrotation
										End Site
										{
											OFFSET 0.000000 0.000000 0.000000
										}
									}
								}
								JOINT LThumb
								{
									OFFSET 0.000000 0.000000 0.000000
									CHANNELS 3 Zrotation Yrotation Xrotation
									End Site
									{
										OFFSET 0.000000 0.000000 0.000000
									}
								}
							}
						}
					}
				}
				JOINT RightShoulder
				{
					OFFSET 0.000000 0.000000 0.000000
					CHANNELS 3 Zrotation Yrotation Xrotation
					JOINT RightArm
					{
						OFFSET -3.136600 1.374050 -0.404650
						CHANNELS 3 Zrotation Yrotation Xrotation
						JOINT RightForeArm
						{
							OFFSET -5.241900 -0.000000 -0.000000
							CHANNELS 3 Zrotation Yrotation Xrotation
							JOINT RightHand
							{
								OFFSET -3.444170 -0.000000 -0.000000
								CHANNELS 3 Zrotation Yrotation Xrotation
								JOINT RightFingerBase
								{
									OFFSET 0.000000 0.000000 0.000000
									CHANNELS 3 Zrotation Yrotation Xrotation
									JOINT RightHandIndex1
									{
										OFFSET -0.622530 -0.000000 -0.000000
										CHANNELS 3 Zrotation Yrotation Xrotation
										End Site
										{
											OFFSET 0.000000 0.000000 0.000000
										}
									}
								}
								JOINT RThumb
								{
									OFFSET 0.000000 0.000000 0.000000
									CHANNELS 3 Zrotation Yrotation Xrotation
									End Site
									{
										OFFSET 0.000000 0.000000 0.000000
									}
								}
							}
						}
					}
				}
			}
		}
	}
}
}
MOTION
Frames: 17
Frame Time: 0.008333
27.067003 16.951840 2.336021 95.460903 -85.878330 -82.114493 -4.823387 0.006671 -5.132830 -1.494686 0.181799 -3.533678 -5.002179 0.051144 2.188820 8.760099 -9.281683 -11.165397 -1.896080 -0.107731 -0.920610 0.000000 0.000000 0.000000 -3.651026 21.821905 1.917775 -72.985511 30.716704 3.813106 -4.126775 -19.849698 -0.013909 -3.181879 3.536744 -0.099422 -0.091928 -0.140698 -0.000000 0.000000 0.000000 0.000000 0.000000 0.000000 0.000000 9.350866 -3.896086 1.267848 55.413008 13.047883 -9.164202 3.276694 26.140513 0.010214 -1.704887 5.503078 -0.090336 0.138537 -0.161844 0.000000 0.000000 0.000000 0.000000 0.000000 0.000000 0.000000 
26.869301 16.979011 2.345848 97.789710 -86.051636 -84.776113 -4.821013 0.059310 -5.034172 -1.501127 0.236711 -3.510746 -5.027002 0.110013 2.196192 8.808057 -9.297290 -11.126263 -1.884014 -0.107274 -0.909480 0.000000 0.000000 0.000000 -3.610838 21.947981 1.887271 -72.845777 30.645266 3.034139 -4.167555 -19.586247 -0.013885 -3.108471 3.546772 -0.097215 -0.095021 -0.139968 -0.000000 0.000000 0.000000 0.000000 0.000000 0.000000 0.000000 9.336616 -3.887303 1.244220 55.554532 12.529450 -8.972017 3.310119 26.093802 0.010855 -1.421324 5.451490 -0.075438 0.137326 -0.158295 0.000000 0.000000 0.000000 0.000000 0.000000 0.000000 0.000000 
26.672717 17.003739 2.352489 110.381459 -85.813010 -97.783464 -5.099613 0.278930 -4.885313 -1.567174 0.475952 -3.486163 -5.083204 0.350444 2.186787 8.943852 -9.295471 -11.092209 -1.883057 -0.107761 -0.902228 0.000000 0.000000 0.000000 -3.569442 22.152085 1.827172 -72.714838 30.533513 2.245283 -4.205747 -19.378014 -0.013856 -3.040295 3.545584 -0.094919 -0.096844 -0.140356 -0.000000 0.000000 0.000000 0.000000 0.000000 0.000000 0.000000 9.456739 -3.753130 1.246048 55.725458 12.049207 -8.803134 3.341670 26.015617 0.011376 -1.118277 5.392429 -0.059832 0.134792 -0.155614 0.000000 0.000000 0.000000 0.000000 0.000000 0.000000 0.000000 
26.475218 17.019248 2.363518 113.450270 -85.904387 -101.221612 -5.100127 0.304730 -4.730354 -1.573920 0.504685 -3.455191 -5.118360 0.383663 2.187511 9.018733 -9.295570 -11.052853 -1.883354 -0.108204 -0.891859 0.000000 0.000000 0.000000 -3.511511 22.224979 1.805507 -72.663357 30.370620 1.549784 -4.234866 -19.179044 -0.013796 -2.987382 3.543067 -0.093113 -0.099229 -0.139173 -0.000000 0.000000 0.000000 0.000000 0.000000 0.000000 0.000000 9.515688 -3.739918 1.224134 55.935482 11.522097 -8.630274 3.378133 25.923733 0.011953 -0.813243 5.325024 -0.044336 0.133348 -0.151683 0.000000 0.000000 0.000000 0.000000 0.000000 0.000000 0.000000 
26.278660 17.028554 2.374190 116.497384 -85.980801 -104.645832 -5.101987 0.312005 -4.550063 -1.580670 0.515017 -3.420836 -5.160016 0.398581 2.184375 9.109505 -9.292574 -11.014501 -1.890816 -0.109178 -0.882109 0.000000 0.000000 0.000000 -3.442060 22.255718 1.789159 -72.646369 30.156945 0.925001 -4.259721 -19.002164 -0.013838 -2.970023 3.565066 -0.093009 -0.101173 -0.137871 -0.000000 0.000000 0.000000 0.000000 0.000000 0.000000 0.000000 9.618032 -3.732332 1.203303 56.183497 10.995511 -8.500851 3.414115 25.806295 0.012449 -0.523882 5.256837 -0.030043 0.131924 -0.147735 0.000000 0.000000 0.000000 0.000000 0.000000 0.000000 0.000000 
26.082906 17.031713 2.383883 119.271829 -86.049206 -107.798099 -5.109556 0.297504 -4.347492 -1.588323 0.503975 -3.383002 -5.208238 0.392197 2.180411 9.217821 -9.293657 -10.980495 -1.905452 -0.110643 -0.873882 0.000000 0.000000 0.000000 -3.352780 22.247739 1.778818 -72.653434 29.868436 0.401627 -4.281162 -18.821302 -0.014027 -2.994317 3.628155 -0.095307 -0.102680 -0.136476 -0.000000 0.000000 0.000000 0.000000 0.000000 0.000000 0.000000 9.767649 -3.739206 1.182614 56.472804 10.475030 -8.435123 3.448126 25.660427 0.012847 -0.267211 5.193262 -0.017650 0.130606 -0.143882 0.000000 0.000000 0.000000 0.000000 0.000000 0.000000 0.000000 
25.888751 17.029129 2.392060 121.542137 -86.120115 -110.438897 -5.124606 0.258940 -4.127762 -1.597477 0.469364 -3.342700 -5.263382 0.362262 2.175338 9.343242 -9.303514 -10.951365 -1.927640 -0.112639 -0.867243 0.000000 0.000000 0.000000 -3.245142 22.190795 1.774247 -72.673429 29.497658 -0.022907 -4.300576 -18.622364 -0.014398 -3.063003 3.747526 -0.100509 -0.103793 -0.134993 -0.000000 0.000000 0.000000 0.000000 0.000000 0.000000 0.000000 9.965863 -3.766579 1.162122 56.808892 9.959270 -8.454732 3.479044 25.484022 0.013133 -0.058056 5.139882 -0.007759 0.129468 -0.140239 0.000000 0.000000 0.000000 0.000000 0.000000 0.000000 0.000000 
25.696026 17.021361 2.398284 123.090015 -86.203385 -112.344162 -5.150729 0.195829 -3.893500 -1.608738 0.411142 -3.299839 -5.323267 0.308902 2.170063 9.483563 -9.331695 -10.928194 -1.957579 -0.115179 -0.862477 0.000000 0.000000 0.000000 -3.106984 22.083776 1.769603 -72.701997 29.032331 -0.349105 -4.323018 -18.303356 -0.014360 -3.174694 3.620640 -0.100806 -0.104567 -0.132877 -0.000000 0.000000 0.000000 0.000000 0.000000 0.000000 0.000000 10.211365 -3.828198 1.142055 57.195612 9.451617 -8.571777 3.505865 25.271923 0.013306 0.089456 5.102333 -0.000968 0.128583 -0.136873 0.000000 0.000000 0.000000 0.000000 0.000000 0.000000 0.000000 
25.504886 17.009278 2.402711 123.950079 -86.308762 -113.528024 -5.174640 0.109539 -3.664210 -1.620734 0.329124 -3.259153 -5.391448 0.231427 2.162767 9.633464 -9.365907 -10.909252 -1.995027 -0.118308 -0.858805 0.000000 0.000000 0.000000 -2.978398 21.914137 1.774418 -72.708106 28.465377 -0.587252 -4.339953 -18.019303 -0.015054 -3.304291 3.866608 -0.111914 -0.105120 -0.131088 -0.000000 0.000000 0.000000 0.000000 0.000000 0.000000 0.000000 10.495577 -3.903721 1.121571 57.644220 8.926370 -8.833751 3.528242 25.034205 0.013380 0.175769 5.082355 0.003023 0.127896 -0.133941 0.000000 0.000000 0.000000 0.000000 0.000000 0.000000 0.000000 
25.315267 16.993663 2.404987 123.941574 -86.433912 -113.815772 -5.208531 0.000609 -3.433157 -1.635616 0.225147 -3.215915 -5.463473 0.132248 2.165754 9.797258 -9.441097 -10.906367 -2.037770 -0.121645 -0.859717 0.000000 0.000000 0.000000 -2.826451 21.721377 1.782710 -72.697881 27.734899 -0.762194 -4.357534 -17.622968 -0.015808 -3.438681 4.156750 -0.125021 -0.105676 -0.128820 -0.000000 0.000000 0.000000 0.000000 0.000000 0.000000 0.000000 10.825527 -4.033355 1.098969 58.143476 8.431949 -9.184557 3.545166 24.747190 0.013339 0.174272 5.089523 0.003014 0.127598 -0.131374 0.000000 0.000000 0.000000 0.000000 0.000000 0.000000 0.000000 
25.127404 16.975665 2.405753 123.304775 -86.576019 -113.429263 -5.231424 -0.122668 -3.220303 -1.649586 0.105510 -3.177895 -5.540516 0.016949 2.163505 9.956416 -9.512020 -10.903566 -2.087472 -0.125609 -0.860446 0.000000 0.000000 0.000000 -2.693619 21.466132 1.795174 -72.650251 26.906252 -0.849027 -4.369178 -17.213223 -0.016745 -3.535665 4.602702 -0.141932 -0.106161 -0.126337 -0.000000 0.000000 0.000000 0.000000 0.000000 0.000000 0.000000 11.170845 -4.164566 1.076402 58.720423 7.894853 -9.726561 3.556386 24.442268 0.013215 0.110767 5.116449 0.000105 0.127390 -0.129354 0.000000 0.000000 0.000000 0.000000 0.000000 0.000000 0.000000 
24.940823 16.956153 2.405064 122.063116 -86.724423 -112.393706 -5.250329 -0.256484 -3.025841 -1.663194 -0.025233 -3.141185 -5.617263 -0.109470 2.171234 10.114912 -9.617838 -10.914792 -2.140970 -0.129712 -0.864991 0.000000 0.000000 0.000000 -2.560744 21.199625 1.805804 -72.570985 25.895102 -0.961681 -4.384159 -16.623947 -0.017358 -3.599735 4.940231 -0.154736 -0.106908 -0.122782 -0.000000 0.000000 0.000000 0.000000 0.000000 0.000000 0.000000 11.536150 -4.340423 1.051837 59.355563 7.374380 -10.370896 3.561488 24.091191 0.012989 -0.043216 5.174094 -0.007104 0.127502 -0.127725 0.000000 0.000000 0.000000 0.000000 0.000000 0.000000 0.000000 
24.755598 16.936047 2.403375 120.432169 -86.867690 -110.921073 -5.260272 -0.394924 -2.856612 -1.675054 -0.161602 -3.106752 -5.691787 -0.241645 2.190395 10.268421 -9.764810 -10.941222 -2.196175 -0.133765 -0.873589 0.000000 0.000000 0.000000 -2.438064 20.932528 1.812193 -72.457799 24.703616 -1.123146 -4.399471 -15.873486 -0.017579 -3.592631 5.175809 -0.161436 -0.107948 -0.118088 -0.000000 0.000000 0.000000 0.000000 0.000000 0.000000 0.000000 11.911125 -4.566486 1.025478 60.044854 6.880321 -11.088088 3.560532 23.687149 0.012665 -0.294049 5.266009 -0.019014 0.127965 -0.126436 0.000000 0.000000 0.000000 0.000000 0.000000 0.000000 0.000000 
24.571588 16.916321 2.401203 118.717644 -86.991514 -109.317869 -5.251030 -0.531575 -2.718134 -1.682862 -0.298020 -3.080381 -5.764589 -0.374655 2.202456 10.396783 -9.880246 -10.960720 -2.255649 -0.138309 -0.880061 0.000000 0.000000 0.000000 -2.351036 20.633894 1.816746 -72.299063 23.400205 -1.297396 -4.409466 -15.034413 -0.017335 -3.476762 5.306169 -0.159730 -0.109088 -0.112429 -0.000000 0.000000 0.000000 0.000000 0.000000 0.000000 0.000000 12.260394 -4.762364 0.999016 60.822752 6.311867 -12.010282 3.552224 23.279764 0.012264 -0.594150 5.375982 -0.033925 0.128258 -0.125596 0.000000 0.000000 0.000000 0.000000 0.000000 0.000000 0.000000 
24.388186 16.897605 2.398802 117.115893 -87.088863 -107.785389 -5.229408 -0.665217 -2.607610 -1.687092 -0.432566 -3.056869 -5.831861 -0.506120 2.225536 10.511489 -10.028579 -10.992415 -2.313530 -0.142547 -0.889759 0.000000 0.000000 0.000000 -2.285892 20.354284 1.814982 -72.105897 21.938215 -1.542601 -4.413752 -14.092387 -0.016631 -3.228915 5.340070 -0.148616 -0.110411 -0.105646 -0.000000 0.000000 0.000000 0.000000 0.000000 0.000000 0.000000 12.597331 -4.998971 0.970918 61.650188 5.768657 -12.964350 3.537765 22.818673 0.011774 -0.986371 5.521590 -0.054237 0.128828 -0.124935 -0.000000 0.000000 0.000000 0.000000 0.000000 0.000000 0.000000 
24.205325 16.880523 2.396484 115.904205 -87.153482 -106.608064 -5.191879 -0.793608 -2.522871 -1.686546 -0.563139 -3.037005 -5.892900 -0.634082 2.254393 10.606237 -10.188266 -11.029265 -2.369277 -0.146522 -0.900755 0.000000 0.000000 0.000000 -2.250667 20.091205 1.807216 -71.876502 20.352292 -1.846287 -4.409094 -13.102690 -0.015489 -2.831421 5.280657 -0.127995 -0.111752 -0.097894 -0.000000 0.000000 0.000000 0.000000 0.000000 0.000000 0.000000 12.907547 -5.253289 0.941691 62.530806 5.225227 -13.958776 3.517329 22.315699 0.011212 -1.453759 5.698302 -0.079751 0.129530 -0.124381 -0.000000 0.000000 0.000000 0.000000 0.000000 0.000000 0.000000 
24.022772 16.865581 2.394469 115.297695 -87.184641 -106.013417 -5.135164 -0.915853 -2.459407 -1.680346 -0.688941 -3.021363 -5.947860 -0.757828 2.282785 10.675693 -10.329438 -11.062198 -2.423601 -0.150410 -0.910620 0.000000 0.000000 0.000000 -2.249036 19.839421 1.795311 -71.611534 18.671602 -2.235835 -4.395683 -12.102229 -0.013998 -2.291477 5.132449 -0.099567 -0.113018 -0.089255 -0.000000 0.000000 0.000000 0.000000 0.000000 0.000000 0.000000 13.180227 -5.493082 0.911754 63.466693 4.644618 -15.013472 3.491380 21.790322 0.010601 -1.968420 5.898210 -0.109668 0.130156 -0.123842 -0.000000 0.000000 0.000000 0.000000 0.000000 0.000000 0.000000 
